<?xml version="1.0" encoding="utf-8"?>
<!-- Generator: Adobe Illustrator 26.0.0, SVG Export Plug-In . SVG Version: 6.00 Build 0)  -->
<svg version="1.1" id="Calque_1" xmlns="http://www.w3.org/2000/svg" xmlns:xlink="http://www.w3.org/1999/xlink" x="0px" y="0px"
	 viewBox="0 0 65.6 33.9" style="enable-background:new 0 0 65.6 33.9;" xml:space="preserve">
<style type="text/css">
	.st0{enable-background:new    ;}
	.st1{fill:#3C3C3B;}
	.st2{fill:#DDECF0;}
	.st3{fill:#3E9389;}
	.st4{opacity:0.6;}
	.st5{clip-path:url(#SVGID_00000110446354060630347890000015673819920585926278_);}
	.st6{fill:#3C3C3B;stroke:#1D1D1B;stroke-width:0.25;stroke-miterlimit:10;}
	.st7{fill-rule:evenodd;clip-rule:evenodd;fill:#1D1D1B;}
	.st8{fill:#1D1D1B;}
</style>
<g class="st0">
	<path class="st1" d="M62.3,5V4.9c0-0.9-0.8-1.7-1.7-1.7h-7.4c-0.9,0-1.7,0.8-1.7,1.7V5c0,0.9,0.8,1.7,1.7,1.7h6.6
		c1.7,0,3.2,0.7,4.2,1.9c0.1,0.1,0.1,0.2,0.2,0.2c0.8,1,1.3,2.3,1.3,3.6c0,3.2-2.6,5.7-5.7,5.7h-5.7c-3.2,0-5.7-2.6-5.7-5.7h3.2
		c0,1.4,1.1,2.5,2.5,2.5h5.7c1.4,0,2.5-1.1,2.5-2.5S61.2,10,59.8,10h-6.6c-1.3,0-2.5-0.5-3.4-1.4c-0.2-0.2-0.4-0.5-0.6-0.8
		C48.7,7,48.4,6.1,48.4,5V4.9c0-2.7,2.2-4.9,4.9-4.9h7.4c2.7,0,4.9,2.2,4.9,4.9V5L62.3,5z"/>
</g>
<g id="globe">
	<path id="mer" class="st2" d="M18.7,15.1c0,7.9,6.4,14.3,14.3,14.3c7.9,0,14.3-6.4,14.3-14.3S40.9,0.8,33,0.8c0,0,0,0,0,0
		C25.1,0.8,18.7,7.2,18.7,15.1L18.7,15.1"/>
	<path id="continents" class="st3" d="M46.6,19c-0.2,0-0.4,0.1-0.4,0.2s-0.3,0.2-0.3,0.2c-0.1,0.1-0.2,0.2-0.3,0.4
		c0,0.1-0.2,0.1-0.3,0.1S45,20,45,20.1s0,0.1-0.1,0l-0.1,0.1l-0.1,0.1c-0.1,0.2-0.2,0.4-0.4,0.5c-0.1,0-0.1,0.4-0.1,0.6
		c0,0.2,0,0.3,0.1,0.4V22v0.2c0,0.1,0,0.3,0.2,0.4c0.2,0,0.4,0,0.5-0.1c0.1,0,0.1,0,0.2-0.1C45.8,21.4,46.3,20.3,46.6,19L46.6,19
		 M23,19.4c0,0,0.2,0.3,0.3,0.4c0.1,0.2,0.3,0.4,0.4,0.7c0,0.1,0,0.3,0,0.4c0,0.1,0,0.2,0,0.2c0,0.2,0,0.4,0,0.6
		c0,0.2-0.2,0.7-0.2,1s0.1,0.6,0.2,0.6s0.1,0.2,0,0.3s-0.2,0.2-0.1,0.2s0,0.2,0,0.3s0.1,0.6,0.1,0.8c0.1,0.2,0.2,0.4,0.2,0.6
		c0,0.1,0.1,0.3,0.1,0.4v0.1c0.1,0,0.1,0.1,0.2,0.1c0.2,0,0.3,0,0.5,0c0.1,0,0-0.1,0-0.2s-0.1-0.3-0.1-0.3s-0.1-0.3,0-0.4
		s0.2-0.2,0.2-0.2s0-0.3,0-0.4s0-0.4,0-0.5s0.3-0.3,0.3-0.4s0.4-0.3,0.4-0.3c0.1-0.2,0.1-0.3,0.1-0.5c0-0.1,0.1-0.1,0.2-0.1
		c0.1,0,0.1,0,0.2,0c0,0,0.1-0.2,0.2-0.2s0.1-0.4,0.2-0.5c0.1-0.1,0.1-0.2,0.2-0.4c0-0.1,0.1-0.2,0.2-0.3c0.1-0.1,0.3-0.2,0.4-0.2
		c0.1-0.2,0.2-0.5,0.2-0.7c0-0.2,0.1-0.3,0.1-0.5c0-0.1,0.1-0.1,0.1-0.1s0.1-0.2,0.1-0.3c0.1-0.1,0.2-0.2,0.2-0.3
		c0-0.1,0-0.2,0.1-0.3v-0.3c-0.1-0.2-0.2-0.4-0.3-0.3s-0.2-0.1-0.4-0.2c-0.1,0-0.3-0.1-0.4-0.1c-0.1,0-0.3-0.2-0.4-0.2
		s-0.4-0.1-0.4-0.1S26,17,25.8,16.9c-0.2-0.1-0.4-0.3-0.6-0.5c0-0.1-0.4-0.3-0.5-0.4c-0.1-0.1-0.2-0.1-0.3-0.1c0,0-0.2-0.2-0.2-0.3
		s-0.3-0.1-0.3-0.1s-0.2,0-0.2,0s-0.2,0-0.2,0S23.1,15.9,23,16s-0.2-0.1-0.2-0.1c-0.1,0-0.2,0-0.4,0.1c-0.1,0-0.2-0.3-0.2-0.5
		S22.1,15,21.9,15s-0.2-0.4-0.2-0.5s-0.2-0.2-0.3-0.2s-0.2,0.2-0.3,0.2s-0.7-0.1-0.6-0.5c0.1-0.3,0.2-0.6,0.5-0.8
		c0.2-0.1,0.4-0.1,0.6,0c0.1,0,0.1,0,0.2,0c0.1,0,0.3,0,0.5,0c0.1,0,0.2,0.4,0.3,0.5s0.1-0.2,0.2-0.3c0-0.1,0-0.2-0.1-0.3
		c0-0.2,0.1-0.4,0.3-0.6c0.1-0.1,0.3-0.2,0.3-0.4c0-0.1,0.1-0.1,0.2-0.1s0-0.4,0.1-0.5c0.1-0.1,0.3-0.2,0.4-0.3
		c0.1-0.1,0.1-0.2,0.1-0.3c0,0,0.2-0.3,0.4-0.3s0.3,0.1,0.2,0.1c0.1,0,0.2-0.1,0.3-0.2c0.1-0.1,0-0.2-0.1-0.3s0-0.3,0-0.3
		s0.1-0.2,0.1-0.2s0.3,0,0.4-0.1s0,0.2-0.1,0.4c0,0.1,0,0.2,0,0.2c0,0,0.1,0,0.1,0c0.1,0,0.1,0.1,0.1,0.1s0.1,0,0.2,0
		s0.1-0.1,0.1-0.2s-0.2-0.2-0.2-0.3c0-0.2,0-0.4,0-0.7c0-0.1-0.1-0.3-0.2-0.2s-0.1-0.3-0.2-0.3c-0.1-0.1-0.1-0.2-0.1-0.2
		c0,0-0.2-0.3-0.3-0.4S25,7.9,25,8S24.8,8.1,24.8,8s-0.1-0.3-0.1-0.4s-0.3-0.1-0.4-0.2S24,7.4,24,7.4c-0.1-0.1-0.2-0.1-0.2-0.1
		c0,0,0,0.7-0.1,0.9s-0.2,0.4-0.2,0.4s0,0.1,0,0.1s-0.1,0.2-0.1,0.4s-0.2,0-0.2-0.1S23,8.6,22.9,8.7s-0.1-0.1-0.2,0
		s-0.3-0.2-0.4-0.2S22.2,8,22.1,8s0-0.1,0-0.1s0.2-0.2,0.3-0.3c0.1-0.2,0.3-0.3,0.4-0.4C22.9,7,23,6.9,22.9,6.8
		c0.2-0.1,0.3-0.2,0.5-0.2c0.1,0,0.2-0.4,0.2-0.4c0-0.1,0-0.2-0.1-0.3c-0.1,0,0.2,0,0.2,0s0.3-0.1,0.4,0l0.4,0.2v0.2l0,0.4
		c-0.3,0.1-0.4,0.4-0.3,0.4c0.3,0.1,0.5,0.2,0.8,0.3c0.1,0.1,0.2-0.2,0.2-0.2c0-0.1,0-0.3,0-0.4c0,0,0.2,0,0.2,0s0.1-0.1,0.2-0.1
		s0.1-0.2,0.1-0.3s-0.1-0.1-0.1-0.1s-0.2-0.1-0.3-0.2s-0.1-0.2-0.1-0.2s0-0.2-0.1-0.3s-0.3-0.1-0.4-0.1s-0.2-0.2-0.2-0.2
		c-0.1,0-0.3,0-0.5,0c-0.1,0-0.2-0.2-0.4-0.1S23.5,5,23.5,5s-0.4,0.3-0.4,0.5S23.2,6,23.3,6s0,0.2-0.1,0.3S23,6.2,23.1,6.2
		s-0.1-0.3-0.2-0.4c-0.1-0.1-0.2-0.1-0.3-0.2l-0.2,0.2c0,0.1,0,0.2,0,0.3c0,0.1-0.2,0.2-0.2,0.1s-0.1,0-0.1-0.1
		c-1.8,2.1-2.9,4.7-3.2,7.5c0.1,0.1,0.1,0.2,0.2,0.2c0,0.1,0.3,0.2,0.3,0.2s0-0.2,0-0.3s0-0.1,0-0.1s0.2,0.3,0.3,0.4
		s0.1,0.6,0.2,0.7c0.3,0.2,0.6,0.3,0.9,0.4c0.2,0.1,0.4,0.2,0.5,0.3c0,0.1,0.3,0.1,0.4,0.1s0.2,0.2,0.2,0.2c0.1,0,0.1,0.1,0.1,0.2
		c0,0,0.4,0.2,0.5,0.3c0.1,0.1,0.2,0.1,0.2,0c0,0,0.1,0.2,0.1,0.3c0,0.1,0,0.2,0,0.3c0,0.2-0.1,0.3-0.1,0.5
		c-0.1,0.2-0.1,0.5-0.2,0.7c0.1,0.1,0.1,0.3,0.3,0.4c0.1,0,0,0.1,0,0.1s0,0.5,0.1,0.6c0.1,0.1,0.2,0.2,0.2,0.3 M24.8,10.8L24.8,10.8
		 M23.8,4.8c0.2,0,0.5-0.1,0.5-0.1c0-0.1,0-0.1,0-0.2h0.1c0.1,0,0.2-0.4,0.2-0.4c0.2-0.1,0.4-0.2,0.6-0.3c0.1-0.1,0.2-0.2,0.4-0.3
		c0.1,0,0.2-0.2,0.2-0.2S25.9,3,26,3s0.2-0.2,0.1-0.2S25.5,3.1,25,3.4c-0.6,0.4-1.3,0.8-1.8,1.3l0.5-0.1 M34.1,22.5
		c0.2-0.2,0.4-0.4,0.6-0.7c0.1-0.2,0.2-0.3,0.2-0.5c0.1-0.1,0.1-0.2,0.2-0.2c0.1-0.3,0.2-0.7,0.4-1c0.2-0.4,0.3-0.8,0.3-1.3
		c0-0.3,0.1-0.7,0.1-1c0.1-0.1,0.2-0.3,0.3-0.4c0.1,0,0.5-0.6,0.6-0.8c0.1-0.2,0.2-0.5,0.2-0.8c0-0.1-0.3-0.2-0.3-0.1
		c-0.1,0.1-0.3,0.1-0.4,0.1c-0.1,0-0.3-0.5-0.4-0.5s-0.2-0.6-0.3-0.7c-0.1-0.2-0.2-0.3-0.4-0.4c0,0,0-0.3,0-0.4s0.1,0,0.1,0.1
		c0.1,0.2,0.3,0.5,0.4,0.7c0.1,0.2,0.3,0.5,0.4,0.8c0.1,0.1,0.6,0.1,0.8,0c0.2-0.1,0.3-0.2,0.4-0.3c0,0,0.3-0.2,0.4-0.2
		s0.2-0.4,0.2-0.5s0-0.4-0.1-0.5c-0.1-0.1-0.3-0.2-0.4-0.1c-0.1,0-0.2-0.2-0.2-0.3s-0.3-0.2-0.3-0.3s0.1-0.2,0.1-0.2
		c0.2,0.1,0.4,0.2,0.5,0.4c0.1,0.1,0.2,0.3,0.3,0.5c0.1,0,0.3,0,0.4,0c0.1,0,0.2,0,0.2,0h0.1l0.3,0c0.1,0.1,0.2,0.2,0.2,0.4
		c0,0.1,0.1,0.2,0.2,0.2c0.1,0,0.1,0.2,0.1,0.3c0.1,0.2,0.2,0.4,0.3,0.5c0.1,0.2,0.2,0.3,0.2,0.5c0,0.1,0.1,0.2,0.1,0.4
		c0,0.1,0.1,0.2,0.2,0.2s0.2-0.5,0.3-0.7c0-0.1,0.1-0.3,0.2-0.3c0,0,0.1-0.1,0.1-0.1s0.2,0,0.2-0.1s0.1-0.4,0.2-0.4
		c0.1-0.1,0.3-0.2,0.4-0.2c0.1,0,0.3,0.2,0.4,0.3c0.1,0.1,0.1,0.2,0.1,0.4c0,0,0.1,0.2,0.2,0.2s0.2,0.1,0.2,0.2s0.2,0.2,0.2,0.3
		c0,0.1,0,0.2,0,0.3c0,0.1,0,0.3,0,0.4c0.2,0.2,0.3,0.4,0.5,0.6c0.1,0.1,0.2-0.2,0.1-0.3S43,16.2,43,16.2c0-0.2,0-0.3,0-0.5
		c0-0.1,0.2,0,0.3,0.1c0.1,0.1,0.2,0.2,0.2,0.2c0,0,0.5-0.2,0.5-0.5c0-0.3,0.1-0.5,0.2-0.7c0-0.1,0-0.2-0.1-0.2s0.1-0.2,0.2-0.2
		s0.5-0.4,0.6-0.5c0.1-0.1,0.2-0.2,0.3-0.3c0.1-0.2,0.1-0.3,0.2-0.5c0-0.2,0-0.3-0.1-0.5c0-0.1-0.1-0.2-0.2-0.3c0-0.1,0-0.2,0-0.3
		c0,0,0.2-0.1,0.2-0.1s0.2-0.2,0.2-0.2s0.1,0.1,0.2,0.1s0.1,0.4,0.2,0.5s0.4-0.4,0.4-0.7c0-0.2,0-0.5,0.2-0.7
		c0.1-0.1,0.2-0.3,0.3-0.4c-0.7-2.1-1.9-4-3.5-5.6l0,0h-0.1c-0.2,0-0.3-0.3-0.3-0.3s0-0.1,0-0.1l-0.3-0.3H42c-0.2,0-0.3-0.1-0.4-0.1
		c0,0-0.2,0-0.2,0.1c0,0.1-0.3,0.1-0.3,0.2c-0.1,0-0.1,0-0.2,0c0,0-0.3,0.1-0.4,0.1c-0.1,0-0.3,0.1-0.4,0.1
		c-0.1,0.1-0.2,0.1-0.2,0.2c0,0.1-0.2,0.1-0.2,0.2s0,0.3,0,0.3l-0.2-0.1c-0.1-0.1-0.2,0.1-0.2,0.1S39,5.4,39,5.3s-0.2-0.1-0.2-0.1
		s-0.2,0-0.2-0.1s-0.3,0.2-0.4,0.4c-0.2,0.1-0.4,0.2-0.7,0.1c-0.1,0-0.2,0.2-0.1,0.2s-0.2,0-0.3,0c-0.2,0.1-0.5,0.1-0.7,0.3
		c-0.1,0-0.1,0-0.2,0c0,0,0,0,0-0.1C36.1,6,36,6,35.9,6s-0.2,0.3-0.2,0.4S35.3,6.1,35.2,6s-0.5-0.2-0.6-0.3
		c-0.1-0.1-0.2-0.2-0.3-0.3c-0.1-0.1-0.3-0.1-0.4-0.1c-0.2,0-0.3,0.1-0.4,0.2c-0.1,0.1-0.2,0.1-0.2,0.1S32.9,6,32.7,6.1
		c-0.1,0.2-0.3,0.4-0.4,0.6c0,0.1-0.1,0.1-0.2,0.1c0,0-0.1,0.1-0.1,0.1s-0.3,0.2-0.4,0.4c0,0.2,0,0.4,0,0.6c0,0.1,0.1,0.4,0.2,0.4
		s0,0.2,0,0.3S32,8.7,32,8.8s-0.2,0.1-0.3,0.1c-0.1,0.1-0.2,0.2-0.2,0.3c0,0.1-0.2,0.1-0.3,0.2c0.1-0.1,0.1-0.1,0.2-0.2
		c0-0.1,0-0.2-0.1-0.3c0,0,0-0.4-0.1-0.5c-0.1-0.1-0.2-0.2-0.2-0.3c0,0,0-0.1,0-0.2s-0.2-0.1-0.3,0s-0.1,0.4-0.1,0.6
		c0,0.1,0,0.2,0.1,0.3c0,0,0,0.2,0,0.2s-0.1,0.3-0.1,0.4s0,0.2-0.1,0.2s0.3,0,0.4,0s0.3,0.1,0.2,0.1s-0.3,0.1-0.3,0.1
		s-0.2,0.2-0.3,0.2s0.1,0.2,0.1,0.1s0.2,0.3,0.2,0.3s0,0.2,0,0.2s-0.4,0-0.5,0c-0.2,0.1-0.3,0.3-0.3,0.4c0,0.2,0,0.4,0,0.5
		c0,0.1,0.3,0.1,0.4,0.2s0.3,0,0.4,0s0.2-0.3,0.3-0.4s0.3-0.4,0.4-0.5s0.4-0.1,0.5-0.1s0,0.2,0.1,0.4s0.3,0.1,0.3,0s0-0.2,0-0.2
		s0.3,0.2,0.4,0.3s0,0.3,0,0.3s-0.1,0.2,0,0.2s0.2-0.2,0.2-0.3s0.1-0.2,0.1-0.2s0.1-0.1,0.1-0.1c-0.1-0.2-0.2-0.3-0.3-0.4
		c-0.1-0.1,0-0.1,0.2,0.1l0.2,0.2c0,0.1,0.1,0.1,0.1,0.2v0.1c0,0.1,0.1,0.2,0.1,0.4c0,0.1,0.1,0.2,0.2,0.2c0.1,0,0.1,0,0.1,0
		s0,0.1,0.1,0.2s0.1-0.2,0-0.2s-0.1-0.3-0.1-0.4c0-0.1,0-0.2,0.1-0.2c0,0,0,0.3,0,0.3c0,0.1,0,0.2,0.1,0.3l0.1,0.1l0.2,0.1
		c0.3-0.1,0.6,0,0.6,0s0.2,0.1,0.2,0s0,0,0,0.1s-0.2,0.3-0.2,0.4s-0.6,0-0.9,0s-0.6,0.1-0.7,0.1s-0.4-0.2-0.6-0.3s-0.3-0.4-0.4-0.4
		s0-0.1,0-0.2s-0.4-0.1-0.6,0s-0.8,0.1-0.9,0.2c-0.1,0-0.3,0-0.4,0c-0.1,0-0.2,0.2-0.3,0.2s-0.2,0.3-0.2,0.6l-0.1,0.2l-0.1,0.1
		c-0.2,0.2-0.3,0.5-0.4,0.8c-0.1,0.4-0.1,0.7-0.1,1.1c0.1,0.3,0.1,0.6,0.3,1c0.2,0.2,0.4,0.4,0.6,0.6c0.2,0.1,0.5,0.1,0.7,0.1
		c0.2,0,0.3-0.1,0.3-0.3h0.2h0c0,0.1,0.3,0.2,0.4,0.2c0.1,0,0.2,0,0.3,0c0.1,0,0.1,0.5,0.1,0.7c0,0.3,0.1,0.6,0.2,0.9
		c0,0.2,0.2,0.6,0.2,0.8c0,0.3-0.1,0.6-0.1,0.9c0.1,0.3,0.2,0.6,0.3,0.9c0.1,0.2,0.1,0.4,0.1,0.6c0,0.1,0.3,0.6,0.3,0.8
		S33.9,22.5,34.1,22.5 M45.8,15.9c0,0,0.2-0.1,0.3-0.1s0.2-0.3,0.1-0.3S46,15.3,46,15.2s-0.2,0.1-0.2,0.2s-0.2,0.1-0.2,0.2
		s0,0.1,0,0.1S45.8,15.9,45.8,15.9 M45.6,17.4c0,0,0-0.3-0.1-0.3s-0.4,0.4-0.3,0.6s0.1,0.2,0.2,0.2s0.2,0,0.3,0s0,0,0-0.1
		C45.5,17.6,45.5,17.5,45.6,17.4 M45,17.1c0-0.1,0-0.4,0-0.5s-0.2-0.2-0.3-0.3s-0.4,0.6-0.6,0.7c-0.2,0.1-0.3,0.4-0.2,0.6
		c0,0.1,0.5,0.1,0.6,0.2s0.2,0,0.2,0s0,0,0,0s0.2-0.2,0.2-0.3S44.8,17.2,45,17.1 M43.7,18.1c-0.2-0.1-0.3,0-0.4,0.1s0.6,0.2,0.8,0.2
		s0.3,0.1,0.3,0C44.2,18.3,44,18.2,43.7,18.1 M45.2,14.1c0-0.1-0.1-0.4-0.1-0.3s0,0.3,0,0.3S45.1,14.2,45.2,14.1 M45.6,14.8
		c0-0.1,0-0.2-0.2-0.2s-0.1,0.4,0,0.5S45.5,14.9,45.6,14.8 M46.3,17.4c0.2,0.1,0.5,0.1,0.5-0.2C46.7,17.1,46.3,17.1,46.3,17.4
		 M46.2,12.3c-0.1,0.1-0.1,0.1-0.1,0.2l0,0c-0.1,0-0.1,0.2,0,0.2s0.2-0.2,0.3-0.2s0.2-0.1,0.2-0.1s0.2,0,0.3-0.1
		c0,0,0.1-0.1,0.1-0.1c0-0.2-0.1-0.3-0.1-0.5l-0.2,0.1C46.6,12,46.4,12.2,46.2,12.3 M42.4,16.7L42.4,16.7 M43.4,17.7
		c-0.1-0.2-0.3-0.4-0.4-0.5L42.9,17l-0.1-0.1c-0.1-0.1-0.3-0.2-0.3-0.3s-0.1,0.1-0.2,0.1l0.2,0.2c0.3,0.4,0.5,0.7,0.7,1.1
		C43.4,18,43.5,17.8,43.4,17.7 M40.5,16.1c0,0.1,0.3,0.3,0.3,0.3c0-0.1,0-0.3-0.1-0.4C40.6,16,40.5,16,40.5,16.1 M36.2,21.1
		c0,0.1,0.2,0.2,0.3,0.2s0.2-0.4,0.3-0.4c0-0.1,0-0.2,0-0.4c0,0,0-0.2,0.1-0.2c0-0.1,0.1-0.2,0.1-0.2c0-0.1-0.1-0.7-0.1-0.8
		s-0.1,0-0.2,0.2s-0.3,0.3-0.4,0.4c-0.1,0.1-0.1,0.3-0.1,0.4c0,0.1,0,0.2-0.1,0.3C36,20.8,36.1,20.9,36.2,21.1 M25.6,25.2h0.2
		C25.8,24.9,25.6,25,25.6,25.2 M30.9,3c-0.1,0-0.2,0-0.3-0.1c-0.1,0-0.3,0-0.5,0c-0.1,0,0-0.2,0.1-0.3s0-0.2-0.1-0.2s-0.5,0-0.6,0
		s-0.2-0.1-0.3-0.1c-0.2,0-0.4,0.1-0.6,0.1c-0.3,0-0.5,0-0.8,0c-0.1,0-0.2,0.2-0.2,0.3S27.2,2.9,27,2.9c-0.4,0-0.8,0.1-1.1,0.3
		c-0.2,0.1-0.4,0.4-0.3,0.4s-0.1,0.2-0.2,0.2c-0.2,0-0.3,0.1-0.4,0.1C24.9,4,25,4,25,4.1s0.1,0,0.2,0c0.1,0,0.2,0.1,0.4,0.1
		c0.1,0-0.2,0.1-0.3,0.1s-0.1,0.2,0,0.3s0.4,0.1,0.4,0s0.3,0,0.4,0.1s0.2,0.3,0.3,0.4c0,0.1,0,0.2,0,0.4c0,0.1,0.2,0.2,0.3,0.1
		s0,0.1-0.1,0.1s0,0.2,0.1,0.3s0,0.2,0,0.2s0,0.2-0.1,0.3s0.2,0.6,0.2,0.8s0.2,0.5,0.2,0.5s0.3,0.1,0.3,0.1s0.1,0,0.2-0.1
		c0.1-0.1,0.1-0.2,0.2-0.3c0.1-0.2,0.2-0.5,0.2-0.7c0-0.1,0.3,0,0.3-0.1c0.1-0.1,0.2-0.1,0.3-0.2c0,0,0.4-0.2,0.5-0.3
		s0.3-0.4,0.3-0.4s0,0-0.1-0.1c0,0-0.1-0.1,0-0.1c0,0,0,0,0,0c0.1,0,0.3,0,0.4,0.1c0.1,0,0.3-0.1,0.2-0.2s0-0.1,0,0s0.1-0.2,0-0.2
		s0.3-0.3,0.2-0.5s0.1-0.5,0.2-0.5s0.1-0.2,0-0.3s0,0,0-0.1c0.1-0.1,0.1-0.2,0.1-0.3c0-0.1,0.2-0.1,0.2-0.2c0.1-0.1,0.2-0.1,0.3-0.2
		C30.9,3.2,31,3,30.9,3 M32.7,3.2c-0.1,0-0.3,0.1-0.3,0.1s-0.2-0.1-0.3,0S31.9,3.7,32,3.7s0.1,0.2,0.1,0.3s0.3,0,0.3,0
		s0.1,0.2,0,0.3s0,0.2,0.1,0.2s0.2,0.2,0.2,0.2S33,4.3,33,4.2s0.3,0,0.4,0s0.2-0.4,0-0.5s-0.3,0-0.3-0.1C33,3.6,33,3.6,32.9,3.6
		C32.8,3.6,32.8,3.3,32.7,3.2 M33.7,3.5c0.2,0,0.4-0.1,0.5-0.2c-0.3-0.1-0.5-0.2-0.8-0.2c-0.2,0-0.4,0-0.4,0.1
		C33.2,3.3,33.4,3.4,33.7,3.5 M30,8.9c0,0-0.1,0.2-0.1,0.2s0.2,0.1,0.3,0.1c0.1,0,0.1-0.1,0.1-0.1c0-0.1-0.1-0.4-0.2-0.4
		S30,8.9,30,8.9 M30.6,6.6c0-0.1-0.4-0.1-0.4-0.1c-0.1,0-0.3-0.1-0.4-0.1c0-0.1-0.1,0.2-0.1,0.2s0,0.1,0.1,0s0,0.1,0,0.2
		s0.2,0.1,0.2,0.2c0,0.1,0.1,0.1,0.2,0.1C30.3,7,30.4,7,30.5,7C30.6,7,30.7,6.6,30.6,6.6 M37.3,4.7c0.1-0.1,0.6-0.3,0.6-0.4
		c0-0.1,0-0.2-0.1-0.2c0,0,0,0,0,0c0,0-0.1,0-0.1,0.1c0,0-0.5,0.1-0.7,0.2c-0.1,0.1-0.3,0.2-0.4,0.3c-0.1,0.1-0.2,0.6-0.2,0.6
		s0.2,0.3,0.3,0.3c0.1,0,0.2,0,0.3,0c0-0.2,0-0.3-0.1-0.5C36.9,5.1,37.2,4.8,37.3,4.7 M36.7,3.4c0.2,0.2,0.3-0.1,0.5,0
		C37.2,3.1,36.7,3.2,36.7,3.4 M40,3.5c0,0.1,0.5,0.1,0.6,0.1s0-0.2-0.2-0.2S40,3.4,40,3.5 M22.9,7c0,0.1,0,0.3,0.1,0.3
		s0.2-0.4,0.4-0.3s0.2,0.1,0.2,0.1c-0.1-0.1-0.3-0.1-0.4-0.2C23.1,6.8,23,6.9,22.9,7 M24.1,14.8c0,0,0.2,0,0.2,0s0-0.1,0-0.1
		S24.2,14.8,24.1,14.8 M23.2,14.5c0.1,0,0,0.1,0.1,0.2s0.3,0.1,0.3,0.1s0.2-0.1,0.3-0.1s0-0.3-0.2-0.3s-0.3-0.1-0.3-0.2
		c-0.1,0-0.2-0.1-0.3-0.2c-0.2,0-0.4-0.1-0.6-0.1c-0.1,0-0.2,0.1-0.3,0.2c0,0,0.2,0.1,0.3,0c0.2,0,0.3,0,0.5,0.1
		C23,14.5,23.1,14.5,23.2,14.5 M22.8,14.8c0,0,0.2,0,0.3,0s0,0,0-0.1S22.8,14.7,22.8,14.8 M23,13.7c-0.1,0-0.1,0.1-0.1,0.1
		c0,0,0,0.1,0.1,0.1C22.9,13.9,23,13.7,23,13.7 M23.4,13.7c0,0-0.1-0.1-0.1-0.1s0,0.1,0,0.2S23.4,13.8,23.4,13.7 M23.7,14.2
		c0.1,0,0.1-0.1,0-0.1s-0.1-0.1-0.2-0.2s-0.1,0.1-0.1,0.1s0,0.1,0.1,0.1S23.6,14.2,23.7,14.2 M46.9,17.4c0,0-0.2,0-0.3,0
		s-0.1,0.1-0.1,0.1s0,0.1,0,0.1s0.2,0.1,0.4,0.2l0.1-0.5L46.9,17.4"/>
	<g id="trace5" class="st4">
		<g>
			<defs>
				<rect id="SVGID_1_" x="15.8" y="-2.5" width="26.8" height="26.8"/>
			</defs>
			<clipPath id="SVGID_00000126325419855227836890000011774046827392968587_">
				<use xlink:href="#SVGID_1_"  style="overflow:visible;"/>
			</clipPath>
			<g style="clip-path:url(#SVGID_00000126325419855227836890000011774046827392968587_);">
				<path class="st6" d="M41.5,1.2c-1.3-1.3-3.8-1.5-6.8-0.4h-0.1h0.2C37.8-0.2,40.1-0.1,41.5,1.2c1.2,1.3,1.4,3.6,0.3,6.6
					c-1.4,3.5-3.5,6.6-6.3,9.2c-2.6,2.7-5.8,4.9-9.3,6.3c-3,1.1-5.3,0.9-6.6-0.4c-1.1-1.1-1.4-3.1-0.7-5.6c0-0.1,0-0.1-0.1-0.2
					c-0.8,2.6-0.5,4.7,0.7,5.9c0.9,0.8,2,1.2,3.1,1.1c1.2,0,2.5-0.3,3.6-0.7c3.5-1.4,6.7-3.5,9.3-6.3l0,0c2.7-2.6,4.9-5.8,6.3-9.3
					C43,5,42.8,2.6,41.5,1.2"/>
			</g>
		</g>
	</g>
</g>
<g class="st0">
	<path class="st1" d="M13.9,13.8v-0.1c0-0.9-0.8-1.7-1.7-1.7H4.9c-0.9,0-1.7,0.8-1.7,1.7v0.1c0,0.9,0.8,1.7,1.7,1.7h6.6
		c1.7,0,3.2,0.7,4.2,1.9c0.1,0.1,0.1,0.2,0.2,0.2c0.8,1,1.3,2.3,1.3,3.6c0,3.2-2.6,5.7-5.7,5.7H5.7C2.6,27,0,24.4,0,21.2h3.2
		c0,1.4,1.1,2.5,2.5,2.5h5.7c1.4,0,2.5-1.1,2.5-2.5s-1.1-2.5-2.5-2.5H4.9c-1.3,0-2.5-0.5-3.4-1.4c-0.2-0.2-0.4-0.5-0.6-0.8
		C0.3,15.8,0,14.8,0,13.8v-0.1C0,11,2.2,8.8,4.9,8.8h7.4c2.7,0,4.9,2.2,4.9,4.9v0.1L13.9,13.8z"/>
</g>
<path class="st7" d="M0,28h17.2L16,29.8H1.2"/>
<path class="st7" d="M48.4,19.3h17.2l-1.2,1.8H49.6"/>
<g id="Calque_6">
	<polygon class="st8" points="36.3,33.9 28.3,33.9 30.4,28.9 34.2,28.9 	"/>
</g>
</svg>
