<?xml version="1.0" encoding="UTF-8" standalone="no"?>
<svg
   xmlns:dc="http://purl.org/dc/elements/1.1/"
   xmlns:cc="http://creativecommons.org/ns#"
   xmlns:rdf="http://www.w3.org/1999/02/22-rdf-syntax-ns#"
   xmlns:svg="http://www.w3.org/2000/svg"
   xmlns="http://www.w3.org/2000/svg"
   xmlns:sodipodi="http://sodipodi.sourceforge.net/DTD/sodipodi-0.dtd"
   xmlns:inkscape="http://www.inkscape.org/namespaces/inkscape"
   id="Capa_1"
   data-name="Capa 1"
   viewBox="0 0 990.19 989.33"
   version="1.1"
   sodipodi:docname="save_sync_disabled.svg"
   inkscape:version="0.92.4 (5da689c313, 2019-01-14)">
  <metadata
     id="metadata34">
    <rdf:RDF>
      <cc:Work
         rdf:about="">
        <dc:format>image/svg+xml</dc:format>
        <dc:type
           rdf:resource="http://purl.org/dc/dcmitype/StillImage" />
        <dc:title>save_sync</dc:title>
      </cc:Work>
    </rdf:RDF>
  </metadata>
  <defs
     id="defs32" />
  <sodipodi:namedview
     pagecolor="#ffffff"
     bordercolor="#666666"
     borderopacity="1"
     objecttolerance="10"
     gridtolerance="10"
     guidetolerance="10"
     inkscape:pageopacity="0"
     inkscape:pageshadow="2"
     inkscape:window-width="1920"
     inkscape:window-height="1001"
     id="namedview30"
     showgrid="false"
     inkscape:zoom="0.81671433"
     inkscape:cx="293.67818"
     inkscape:cy="494.66501"
     inkscape:window-x="-9"
     inkscape:window-y="1341"
     inkscape:window-maximized="1"
     inkscape:current-layer="Capa_1" />
  <title
     id="title23">save_sync</title>
  <path
     d="M720.17,143.39c0,25.29,0,50.59,0,75.88,0,20.18-12.5,32.64-32.66,32.7s-40.31.1-60.47,0c-20.37-.11-32.79-12.34-32.83-32.54q-.13-76.89,0-153.76c0-18.61,12.8-31.32,31.4-31.43q32-.21,64,0c17.3.13,30.38,13,30.51,30.29.21,26.29.06,52.58.06,78.87Z"
     transform="translate(0 0)"
     id="path25"
     style="fill:#000000;fill-opacity:0.25882354" />
  <path
     d="M990.18,918.45q0-360.65,0-721.29c0-22.53-7.95-41.93-23.86-57.88q-57.82-58-115.91-115.69a86.88,86.88,0,0,0-14.45-11.37C818,.78,797.88-.93,777.28.37c-1.08.07-2.54,1.68-2.95,2.87-.52,1.49-.15,3.29-.15,4.95q0,123.14-.14,246.26c0,5.49-.88,11.47-3.18,16.37-5.63,12-15.9,17.17-29.12,17.16q-93.75-.12-187.5,0-116.74,0-233.49-.16a37.42,37.42,0,0,1-15.41-3.11c-12.26-5.78-17.21-16.29-17.2-29.62q.11-124.37.13-248.75c0-4.71-1.16-6.19-6.06-6.18-82.66.15-165.33.36-248-.07C13.91-.06,0,14,0,34.19Q.48,264.47.18,494.74h0v309.2q0,76.42,0,152.85c0,8.93,2.42,16.79,8.59,23.22,6.89,7.18,15.62,9.33,25.43,9.32q238-.15,476-.07,223.5,0,447,0c20.68,0,33-12.27,33-32.84C990.21,943.76,990.18,931.1,990.18,918.45ZM153.65,432.2h0a26.05,26.05,0,0,1,26-26h65.82C331.14,409.27,386.3,473.4,439.59,538c-14.19,18.3-28.1,36.92-41.77,55.36-5.17,7-10.29,13.81-15.4,20.66-21-27.33-41.53-52.4-61.37-71.86-31.38-31.42-58.3-44.87-75.52-44.18H179.71a26,26,0,0,1-26-26V432.2ZM827.26,832.88,674,921.34c-12.45,7.18-22.55,1.35-22.55-13V863.47c-76.82-9.81-128.73-69.26-178.65-129.94,14.3-18.46,28.39-37.23,42.09-55.82,5-6.85,10.05-13.48,15-20.19,21,27.35,41.54,52.44,61.42,71.88,23.2,23.22,43.91,36.56,60.1,41.68V731.49c0-14.39,10.1-20.22,22.55-13l153.22,88.41C839.71,814,839.71,825.7,827.26,832.88Zm0-367.41L674,553.92c-12.45,7.2-22.55,1.38-22.55-13v-40.5c-27.26,8.85-67.7,43.61-108.22,96.5-49.68,62.26-100.13,140.52-157.69,197.83-38.34,37.44-82.8,69.93-140.13,70.66H179.62a26,26,0,0,1-26-26V799.61a26,26,0,0,1,26-26h39.79c14.37,0,38.07.36,51-5.94,26.72-13,62.75-46.1,98.68-93,49.74-62.21,100.12-140.48,157.76-197.81,34.78-34,74.68-63.63,124.63-69.39V364c0-14.37,10.1-20.2,22.55-13l153.22,88.44C839.72,446.63,839.72,458.27,827.26,465.47Z"
     transform="translate(0 0)"
     id="path27"
     style="fill:#000000;fill-opacity:0.25882354" />
</svg>
