<svg xmlns="http://www.w3.org/2000/svg" xmlns:xlink="http://www.w3.org/1999/xlink" viewBox="0 0 127.26 53.5"><defs><style>.cls-1{fill:none;}.cls-2{fill:#3e9389;}.cls-3,.cls-8{fill:#1d1d1b;}.cls-4{fill:#3c3c3b;}.cls-5{fill:#ddecf0;}.cls-6{opacity:0.6;}.cls-7{clip-path:url(#clip-path);}.cls-8{fill-rule:evenodd;}</style><clipPath id="clip-path" transform="translate(0 -2.65)"><rect class="cls-1" x="36.29" width="26.76" height="26.76"/></clipPath></defs><title>noirFichier 3</title><g id="Calque_2" data-name="Calque 2"><g id="Vector"><g id="LOGO_SOS_TRADE_NOIR" data-name="LOGO SOS TRADE NOIR"><path class="cls-2" d="M53.19,45.3a4,4,0,0,1,.25,2.89,2.77,2.77,0,0,1-1.18-3.39c.27-.65.44-1.35-.19-1.79,1,.38,3.56,3.4,1.87,4.91a6.81,6.81,0,0,1-.25,1.24l.14-.17a.56.56,0,0,1,.09-.46,1.7,1.7,0,0,1,1.61-.69c.43,0,.78-.05,1.1.23-.2-.09-.51-.19-.82.39a1.61,1.61,0,0,1-2,.75c.37-.43.78-1,1.42-.92-.71-.18-1.29.56-1.67,1.1a7.36,7.36,0,0,1-1.08,2.08,5.69,5.69,0,0,1,4.14-.09,5,5,0,0,0-3.77-.25c.46-1.31,2.84-1.34,3.85-.12.25.29.67.4,1,.69-.72-.26-1.58.78-2.77.82a2.26,2.26,0,0,1-2.07-1c-.17.06-.42.14-.58.21a2.49,2.49,0,0,0-.64,1,4.4,4.4,0,0,1-.6-.52c.3-.19.57-.54.83-.74a2,2,0,0,0-.16-2,2.14,2.14,0,0,1,.19,1.69c-1.48-.45,0-2.38-.78-2.89.78.51,2,2.25,1,2.85,0,.1,0,.14-.07.22a7.53,7.53,0,0,0,1.67-3.44,2.59,2.59,0,0,0-.51-2.58Z" transform="translate(0 -2.65)"/><polygon class="cls-3" points="51.67 50.1 42.62 51.65 42.93 49.7 51.07 49.58 51.67 50.1"/><path class="cls-4" d="M18.17,38V41.2H10.71V56.15H7.46V41.2H0V38Z" transform="translate(0 -2.65)"/><path class="cls-4" d="M35.49,52.9l1.66,3.25H33.51L31.85,52.9l-1.74-3.41L30,49.34a3.22,3.22,0,0,0-2.76-1.56H24v8.37H20.77V38h11.5a4.83,4.83,0,0,1,3.45,1.43,4.93,4.93,0,0,1-1.43,7.95,4.23,4.23,0,0,1-1.4.39Zm-3.22-8.38a1.56,1.56,0,0,0,.67-.15,1.65,1.65,0,0,0,1-1.51,1.75,1.75,0,0,0-.49-1.2,1.68,1.68,0,0,0-1.17-.46H24v3.35Z" transform="translate(0 -2.65)"/><path class="cls-3" d="M66.76,56.12H61.3l-2.5-4.87-6-11.7-6,11.7-2.5,4.87H38.91l2.5-4.87L52.83,28.82,64.26,51.25Z" transform="translate(0 -2.65)"/><path class="cls-4" d="M77.52,38A9.07,9.07,0,0,1,84.46,52.9c-.16.18-.34.36-.52.54a8.92,8.92,0,0,1-6.4,2.68h-9.1V37.92ZM71.67,52.9h5.85a5.85,5.85,0,1,0,0-11.7H71.67Z" transform="translate(0 -2.65)"/><path class="cls-4" d="M92.49,42.83v1.69h11.7v3.26H92.49v3.43a1.68,1.68,0,0,0,1.67,1.66h13.28v3.25H94.16a4.9,4.9,0,0,1-4.89-4.91V42.83a4.9,4.9,0,0,1,4.89-4.91h13.28v3.25H94.16A1.68,1.68,0,0,0,92.49,42.83Z" transform="translate(0 -2.65)"/><path class="cls-4" d="M124,43v-.1a1.68,1.68,0,0,0-1.67-1.66H115a1.68,1.68,0,0,0-1.67,1.66V43A1.69,1.69,0,0,0,115,44.63h6.55a5.73,5.73,0,0,1,4.24,1.87c.08.08.13.16.21.23a5.82,5.82,0,0,1,1.3,3.65,5.75,5.75,0,0,1-5.75,5.74h-5.69a5.74,5.74,0,0,1-5.75-5.74h3.25a2.5,2.5,0,0,0,2.5,2.49h5.69a2.5,2.5,0,1,0,0-5H115a4.87,4.87,0,0,1-3.41-1.38,4.34,4.34,0,0,1-.62-.78,4.8,4.8,0,0,1-.86-2.78v-.11A4.9,4.9,0,0,1,115,37.92h7.38a4.93,4.93,0,0,1,4.92,4.91v.11Z" transform="translate(0 -2.65)"/><path class="cls-4" d="M83.78,16v-.1a1.68,1.68,0,0,0-1.66-1.67H74.74a1.69,1.69,0,0,0-1.67,1.67V16a1.68,1.68,0,0,0,1.67,1.66h6.55a5.7,5.7,0,0,1,4.24,1.88c.07.07.13.15.2.23a5.75,5.75,0,0,1-4.44,9.39h-5.7a5.75,5.75,0,0,1-5.74-5.75H73.1a2.5,2.5,0,0,0,2.49,2.5h5.7a2.5,2.5,0,1,0,0-5H74.74a4.88,4.88,0,0,1-3.41-1.37,5.18,5.18,0,0,1-.62-.78A4.83,4.83,0,0,1,69.85,16v-.1A4.9,4.9,0,0,1,74.74,11h7.38A4.93,4.93,0,0,1,87,15.88V16Z" transform="translate(0 -2.65)"/><g id="globe"><path id="mer" class="cls-5" d="M39.12,17.63A14.28,14.28,0,1,0,53.4,3.35,14.28,14.28,0,0,0,39.12,17.63" transform="translate(0 -2.65)"/><path id="continents" class="cls-2" d="M67.08,21.55c-.19,0-.44.09-.44.16s-.26.18-.35.21a1.14,1.14,0,0,0-.29.39c0,.09-.25.06-.33.1s-.24.16-.24.24,0,.07-.09,0l-.11.11-.12.13a1.18,1.18,0,0,1-.38.53c-.08,0-.1.4-.1.56a.69.69,0,0,0,.14.43v.12l0,.25a.42.42,0,0,0,.15.39,2.35,2.35,0,0,0,.53-.1.71.71,0,0,0,.19-.08,14,14,0,0,0,1.47-3.41h-.07m-23.63.37s.24.3.34.39a2.45,2.45,0,0,1,.35.66,1,1,0,0,1,0,.42.86.86,0,0,0,.06.23,3.36,3.36,0,0,0-.05.64c0,.16-.2.69-.19.95s.12.61.17.58.06.24,0,.27-.17.24-.13.26,0,.21,0,.29.09.63.1.77a6,6,0,0,0,.25.58c0,.11.08.32.1.35s0,.07,0,.07a1.43,1.43,0,0,1,.2.09,1.13,1.13,0,0,0,.45,0c.1,0,0-.12,0-.17S45,28,45,28a.59.59,0,0,1,0-.4c0-.07.23-.18.25-.24a.73.73,0,0,0,0-.36s0-.36,0-.52.28-.31.3-.44.37-.27.44-.33a.77.77,0,0,0,.11-.51c0-.08.13-.14.2-.14s.16-.06.19-.06.11-.16.16-.2.14-.42.23-.49a.67.67,0,0,0,.15-.36,1,1,0,0,1,.18-.34,1.72,1.72,0,0,1,.42-.23,2.72,2.72,0,0,0,.17-.72,4.13,4.13,0,0,1,.12-.5c0-.06.11-.11.13-.13s.1-.26.14-.31a1.72,1.72,0,0,0,.24-.33,1.66,1.66,0,0,1,.06-.29v-.32c-.06-.16-.23-.35-.28-.31s-.24-.14-.34-.18a2.45,2.45,0,0,0-.42-.07c-.06,0-.28-.18-.38-.21s-.35-.08-.4-.11-.11-.4-.31-.52a2.16,2.16,0,0,1-.6-.52c0-.11-.43-.33-.55-.39s-.31-.09-.33-.06-.17-.21-.25-.27-.31-.12-.32-.06-.17,0-.21,0-.15,0-.21,0-.25.31-.34.38-.2-.06-.26-.09a.72.72,0,0,0-.34.09c-.06,0-.2-.31-.17-.48s-.15-.49-.29-.5-.18-.35-.15-.48-.25-.21-.32-.21-.25.17-.28.25-.66-.12-.59-.5a1.81,1.81,0,0,1,.45-.81,1.1,1.1,0,0,1,.57,0,.15.15,0,0,0,.19,0,1.33,1.33,0,0,1,.45.05c.1,0,.24.42.34.47s.14-.25.16-.32a.84.84,0,0,0-.08-.31,1.12,1.12,0,0,1,.32-.59.74.74,0,0,0,.31-.38s.12-.09.16-.11,0-.39.05-.47a1.82,1.82,0,0,1,.45-.29.38.38,0,0,0,.13-.32s.24-.28.38-.32.26.08.23.1l.3-.17c.1-.06,0-.24-.06-.29s0-.26,0-.28.14-.19.12-.23.31,0,.44-.06,0,.22-.06.35a.14.14,0,0,0,.13.22c.06,0,.12.07.13.11s.14,0,.22,0,.14-.12.14-.19-.19-.21-.23-.29,0-.57,0-.67-.13-.26-.18-.23-.13-.26-.2-.32a.37.37,0,0,1-.08-.25s-.23-.29-.29-.41-.14-.09-.14,0-.17.06-.24.06-.13-.27-.13-.37-.3-.12-.35-.2-.25,0-.28-.09a.33.33,0,0,0-.25-.09s0,.73-.05.93-.2.36-.26.35,0,.14,0,.13-.11.21-.14.35-.16,0-.19-.14-.17-.31-.19-.26-.13-.06-.17,0-.32-.16-.43-.22-.17-.4-.24-.43,0-.07,0-.12.21-.25.28-.32a3.38,3.38,0,0,1,.4-.46.44.44,0,0,0,.15-.27,2.55,2.55,0,0,1,.51-.2c.11,0,.21-.36.23-.45a.36.36,0,0,0-.13-.28s.16,0,.23,0,.29-.06.37,0l.38.23,0,.23,0,.39c-.33.14-.43.37-.31.37a2.84,2.84,0,0,1,.79.33c.15.11.19-.15.24-.24a.61.61,0,0,0,0-.38c0-.05.17,0,.23,0s.13-.06.17-.08S46,9,46,8.91s-.09-.09-.1-.14-.24-.16-.32-.19-.09-.2-.05-.23,0-.24-.07-.31-.28-.12-.36-.12S45,7.73,44.9,7.7a1.25,1.25,0,0,0-.44,0c-.08,0-.22-.22-.35-.15s-.27-.09-.33-.12-.37.3-.37.53a.63.63,0,0,0,.17.47c.05,0,0,.22-.07.28s-.18-.06-.13-.12-.14-.3-.2-.39S43,8,42.87,8l-.19.21a.53.53,0,0,1,0,.28c0,.14-.16.16-.17.1s-.06-.05-.13-.06A14.22,14.22,0,0,0,39.18,16a.82.82,0,0,1,.17.24c0,.12.26.21.3.23s.05-.24,0-.31.06-.11,0-.06a1.89,1.89,0,0,0,.28.37c.07.09.14.63.2.75a2.58,2.58,0,0,0,.9.4,1.14,1.14,0,0,1,.5.34c0,.06.31.1.36.12s.2.21.26.25a.37.37,0,0,1,.1.18,3.91,3.91,0,0,1,.44.25.19.19,0,0,0,.26,0s.09.19.13.27a.49.49,0,0,1,0,.31s-.08.38-.14.46a1.79,1.79,0,0,0-.16.69.81.81,0,0,0,.27.35c.07,0,0,.14,0,.15s0,.5.1.57a.51.51,0,0,1,.23.34m1.68-8.72h0m-1-6c.17,0,.45-.08.47-.13a.28.28,0,0,0,0-.2h.08c.06,0,.17-.36.24-.44a3.51,3.51,0,0,1,.55-.27c.1,0,.3-.25.38-.27a.41.41,0,0,0,.18-.25s.26-.2.37-.25.16-.17.12-.17a11.79,11.79,0,0,0-1.17.62,13.94,13.94,0,0,0-1.76,1.41l.55-.06M54.51,25a4.38,4.38,0,0,0,.59-.66,1.62,1.62,0,0,0,.2-.52c0-.08.18-.2.23-.22s.25-.79.41-.95a2.89,2.89,0,0,0,.33-1.28,4.06,4.06,0,0,1,.15-1,1.42,1.42,0,0,1,.3-.42,8.08,8.08,0,0,0,.59-.84,2,2,0,0,0,.22-.77c0-.11-.3-.19-.35-.13a1,1,0,0,1-.39.09c-.08,0-.27-.44-.39-.53s-.22-.6-.29-.69l-.31-.4c-.06-.05-.07-.32-.09-.39s.12.05.14.15a4.56,4.56,0,0,0,.42.69,7.73,7.73,0,0,1,.4.75c.06.14.61.07.79,0a1.12,1.12,0,0,0,.41-.27c0-.05.3-.18.37-.25s.15-.39.2-.44,0-.37-.1-.47a.5.5,0,0,0-.4-.13c-.06,0-.18-.21-.22-.3s-.26-.2-.29-.27.06-.16.1-.18a2,2,0,0,1,.55.4,3.51,3.51,0,0,1,.27.44c0,.05.34.07.41,0s.15,0,.18,0l.1,0,.35,0a.64.64,0,0,1,.2.37s.11.18.17.19.12.25.14.3.22.4.26.54a2.89,2.89,0,0,0,.25.5,1.21,1.21,0,0,1,.07.35.25.25,0,0,0,.21.17c.08,0,.24-.5.28-.69a.47.47,0,0,1,.2-.33s.06-.11.06-.15.21,0,.22-.08.08-.38.15-.43a2.58,2.58,0,0,1,.42-.25c.09,0,.32.16.37.25a.85.85,0,0,1,.08.37s.12.24.24.24.16.15.17.21.16.22.19.29a.5.5,0,0,1,0,.32,1.25,1.25,0,0,0,0,.38,3.86,3.86,0,0,0,.54.57c.14.11.21-.24.13-.34s-.31-.37-.37-.44a.94.94,0,0,1,0-.47c0-.08.22.05.3.11a.66.66,0,0,1,.19.25s.5-.24.52-.55a3.77,3.77,0,0,1,.2-.73c0-.08,0-.19-.09-.19s.08-.24.22-.23.48-.38.56-.53a1.13,1.13,0,0,1,.26-.29,2.64,2.64,0,0,0,.15-.52,1.3,1.3,0,0,0-.1-.45,1.51,1.51,0,0,0-.16-.31.62.62,0,0,1,0-.29s.14-.08.16-.12.16-.19.15-.26.09.09.15.15.14.42.22.46.42-.39.38-.66a.85.85,0,0,1,.18-.66,1.86,1.86,0,0,0,.32-.41,14.31,14.31,0,0,0-3.52-5.55h-.06l-.12,0c-.21,0-.33-.26-.29-.31a.17.17,0,0,0,0-.1l-.35-.3h-.26a1,1,0,0,1-.44-.14s-.21,0-.22.13-.29.13-.31.2a.15.15,0,0,1-.2,0s-.29.09-.42.11a2.11,2.11,0,0,0-.43.15.6.6,0,0,0-.21.21.62.62,0,0,1-.25.17s0,.26,0,.3-.13,0-.21-.08-.19.11-.21.16-.11,0-.11-.1-.21-.14-.24-.08-.18,0-.24,0-.33.25-.43.35a1.18,1.18,0,0,1-.67.14c-.09,0-.18.21-.1.23h-.34a2.59,2.59,0,0,0-.69.26.11.11,0,0,1-.18-.07c0-.06-.17-.12-.21-.13s-.15.32-.23.39-.19-.27-.39-.32A6.47,6.47,0,0,1,55,8.28c-.09,0-.27-.21-.32-.26a.84.84,0,0,0-.39-.1,1.27,1.27,0,0,0-.42.21c-.07.06-.18,0-.22.07s-.33.32-.45.41a3.54,3.54,0,0,0-.39.59.25.25,0,0,1-.2.11s-.07.11-.07.15-.35.22-.38.38a3.35,3.35,0,0,0,0,.64c0,.13.13.38.23.38s0,.22,0,.28.06.12.05.18-.24.12-.31.15a.46.46,0,0,0-.21.25c0,.06-.25.1-.32.17s0-.13.06-.17a.26.26,0,0,0-.05-.26s0-.44-.11-.53a2.45,2.45,0,0,0-.24-.27s0-.14,0-.19-.19-.07-.25,0S51,10.88,51,11a.35.35,0,0,0,.14.3s0,.21-.05.21-.15.31-.11.38,0,.2-.1.23.29,0,.45,0,.27.06.25.07-.29.06-.34.12-.24.19-.27.24.06.16.14.16.17.27.23.32a.23.23,0,0,1,0,.24s-.4,0-.54,0-.32.33-.33.45a2.2,2.2,0,0,0,0,.52c0,.09.31.15.37.19s.35,0,.41,0,.25-.29.28-.43.34-.42.41-.52.39-.08.47-.14,0,.25.07.41.35.15.3,0,0-.22,0-.16.31.18.37.26,0,.27,0,.27-.07.2,0,.23.17-.23.24-.27.14-.2.1-.21.07-.15.11-.1a1.71,1.71,0,0,0-.29-.44c-.12-.13,0-.07.2.13l.17.23s.07.17.1.21l0,.07a1.69,1.69,0,0,1,.06.36.25.25,0,0,0,.21.17c.08,0,.14,0,.12,0s0,.16.13.16.11-.19,0-.2-.06-.29-.08-.42.06-.23.09-.23,0,.26,0,.32a.72.72,0,0,0,.07.26l.08.06.18.14c.26-.07.61,0,.59,0s.19.06.21,0,0,0,0,.06-.17.29-.2.4-.63,0-.88,0a1.12,1.12,0,0,0-.67.14c0,.08-.43-.17-.61-.25s-.33-.36-.37-.39,0-.13,0-.19a1.1,1.1,0,0,0-.56,0c-.12.05-.75.11-.9.18a.78.78,0,0,1-.44,0c-.07,0-.24.2-.32.23a1.06,1.06,0,0,0-.24.65l-.12.22-.07.15a3.25,3.25,0,0,0-.51.79,5.64,5.64,0,0,0-.12,1.12,3.68,3.68,0,0,0,.29.95,2.21,2.21,0,0,0,.58.56,2,2,0,0,0,.68.09.41.41,0,0,0,.35-.29l.2,0h.09c0,.11.3.2.38.24a.57.57,0,0,0,.32,0c.06,0,.13.51.09.66a2.85,2.85,0,0,0,.14.85c0,.16.23.6.25.75s-.11.68-.13.87a3.71,3.71,0,0,0,.29.87,2.77,2.77,0,0,1,.12.64c0,.09.27.62.34.84s.74.27.93.16M66.3,18.48s.19-.1.29-.11.17-.3.09-.32-.18-.23-.24-.26-.17.09-.17.18-.19.12-.22.19,0,.12,0,.11.23.17.25.21M66.09,20s0-.29-.11-.31-.41.36-.35.58.12.2.15.16.21,0,.26,0,0,0,0-.11a.43.43,0,0,1,0-.36m-.59-.27c0-.09,0-.4,0-.46S65.39,19,65.3,19s-.38.6-.59.71a.59.59,0,0,0-.23.58c.06.09.49.13.57.2s.15,0,.2,0,0,0,0-.05a2.26,2.26,0,0,0,.18-.3c0-.12,0-.29.06-.39m-1.17,1.05a.34.34,0,0,0-.37.09c0,.07.63.17.84.23s.34.07.29,0a7,7,0,0,0-.76-.36m1.3-4.17c.05-.07-.07-.4-.14-.33s0,.27,0,.34.08.07.13,0m.38.72c0-.08,0-.18-.18-.21s-.12.39-.06.44.21-.14.24-.23m.72,2.58c.17.12.54.07.55-.16-.16-.11-.56-.09-.55.16m-.09-5.1a.26.26,0,0,0-.08.22h0s-.06.21,0,.25.2-.17.27-.22A.36.36,0,0,1,67,15a.67.67,0,0,0,.29-.09.24.24,0,0,0,.08-.09c0-.16-.07-.32-.11-.48l-.18.14c-.08.07-.39.27-.48.33m-3.78,4.39h0m1,1a1.67,1.67,0,0,0-.44-.51l-.07-.11-.07-.13c-.07-.14-.27-.24-.29-.28s-.09.12-.16.07l.23.16c.19.13.56,1.07.64,1.13s.22-.19.16-.33m-3-1.51c0,.11.27.33.3.28a.59.59,0,0,0-.1-.37c-.06-.05-.15,0-.2.09m-4.32,5c0,.11.23.2.3.18a1.1,1.1,0,0,0,.27-.45,1.72,1.72,0,0,0,.05-.35.34.34,0,0,1,0-.17.52.52,0,0,0,.09-.26,5.27,5.27,0,0,0-.14-.81c0-.11-.12.05-.15.15s-.32.32-.38.41a.79.79,0,0,0-.11.44.69.69,0,0,1-.06.31,2.43,2.43,0,0,0,.08.55M46.07,27.68h.19c0-.21-.2-.18-.19,0M51.31,5.54A.67.67,0,0,1,51,5.47a.93.93,0,0,0-.45,0c-.09,0,0-.22.1-.25s0-.21-.12-.21-.47,0-.55,0a1.12,1.12,0,0,1-.29-.07A6.33,6.33,0,0,1,49,5c-.19,0-.66,0-.76,0a.33.33,0,0,0-.16.3c0,.07-.46.07-.61.07a5.16,5.16,0,0,0-1.14.29c-.2.11-.37.4-.3.4s-.11.17-.22.21-.38.06-.44.12.07.1.09.15.1,0,.17,0a2.61,2.61,0,0,0,.36.08c.06,0-.2.07-.32.08s-.09.25,0,.28.35.07.38,0,.3,0,.42.06.22.32.26.39a1.14,1.14,0,0,1,0,.37c0,.07.22.19.26.15s0,.1-.06.1,0,.25.08.29,0,.2,0,.25,0,.2-.09.26.23.57.23.84.16.49.23.49.28,0,.31.11.14,0,.18-.08l.2-.29a6.62,6.62,0,0,0,.24-.71c0-.06.27,0,.33,0a2.69,2.69,0,0,0,.27-.2s.41-.19.51-.26.26-.38.33-.44,0-.05-.13-.11-.06-.14,0-.17a1.31,1.31,0,0,1,.42.08c.1,0,.29-.09.22-.15s0,0,0,0,.07-.17,0-.21.3-.28.24-.51.09-.46.18-.47.06-.26,0-.28,0,0,0-.08a.59.59,0,0,0,.07-.31c0-.05.16-.1.19-.15a1,1,0,0,1,.33-.17c.07,0,.11-.22,0-.21m1.86.19c-.1,0-.3.08-.28.14s-.17-.08-.3,0-.18.31-.11.34.1.22.11.26.26,0,.33,0,.06.19,0,.26,0,.2.1.21.17.19.24.18.21-.29.24-.4.28,0,.39,0,.16-.4,0-.47-.28,0-.33-.08a.44.44,0,0,0-.19-.1c-.06,0-.11-.27-.22-.3m1,.2a.67.67,0,0,0,.48-.18c.05,0-.56-.17-.79-.18s-.42,0-.41.07a1.92,1.92,0,0,0,.72.29M50.49,11.4c-.05,0-.08.17-.07.25s.2.07.28,0a.15.15,0,0,0,.14-.14c0-.06-.12-.36-.17-.36s-.13.22-.18.2m.6-2.33c0-.07-.36-.06-.44-.07a.92.92,0,0,1-.36-.13s-.07.19-.15.23,0,.08.07.05,0,.13,0,.18.22.09.24.17a.21.21,0,0,0,.23.11c.09,0,.28-.11.35-.12s.14-.34.1-.42m6.65-1.81c.11-.11.56-.26.61-.37a.15.15,0,0,0-.08-.21c-.05,0-.1.06-.11.08s-.53.14-.68.21a1.7,1.7,0,0,0-.41.27,3.88,3.88,0,0,0-.21.63c0,.06.17.26.26.32a.32.32,0,0,0,.25,0s0-.37-.09-.49.35-.35.46-.46m-.55-1.33c.17.17.26-.07.45,0,0-.34-.47-.22-.45,0M60.48,6c0,.06.46.11.6.08s0-.24-.23-.22-.37.07-.37.14M43.36,9.5c0,.05,0,.28.09.29s.24-.35.36-.28.19.1.17.06a3.58,3.58,0,0,0-.39-.21s-.18.1-.23.14m1.21,7.85s.2,0,.24,0,0-.11,0-.11-.2.1-.2.14M43.65,17c.1,0,.05.14.07.2s.26.1.31.14.17-.07.27-.06,0-.32-.19-.31-.29-.15-.32-.17a1.75,1.75,0,0,1-.28-.17,2.33,2.33,0,0,0-.59-.08.43.43,0,0,0-.31.19c0,.05.22.08.28,0a.67.67,0,0,1,.46.12.36.36,0,0,0,.3.1m-.43.34s.21,0,.25,0,.05,0,0-.08-.25,0-.25.06m.14-1.07s-.09.06-.09.1,0,.08.06.08.09-.16,0-.18m.44,0a.21.21,0,0,0-.13-.07s-.05.07,0,.15.19,0,.17-.08m.31.49c.09,0,.1-.14,0-.14s-.14-.14-.2-.16-.1.09-.1.13,0,.09.07.08.1.13.18.09m23.25,3.27s-.25,0-.28,0-.07.09-.12.11,0,.13.05.09.25.09.41.19c0-.16.06-.32.08-.48l-.14.09" transform="translate(0 -2.65)"/><g id="trace5" class="cls-6"><g class="cls-7"><path class="cls-4" d="M61.93,3.76c-1.35-1.34-3.75-1.48-6.77-.39l-.13,0,.18.05c3-1.06,5.33-.93,6.64.37s1.44,3.66.36,6.62A26.48,26.48,0,0,1,56,19.7a26.63,26.63,0,0,1-9.28,6.23c-3,1.07-5.34.94-6.65-.37-1.15-1.14-1.39-3.14-.69-5.63,0-.05,0-.14-.06-.2-.77,2.62-.54,4.71.67,5.92a4.3,4.3,0,0,0,3.14,1.11A11,11,0,0,0,46.71,26,26.78,26.78,0,0,0,56,19.78h0a26.46,26.46,0,0,0,6.29-9.27c1.09-3,1-5.4-.39-6.74" transform="translate(0 -2.65)"/></g></g></g><path class="cls-8" d="M79.64,9.11h-.08a.29.29,0,0,1,0-.09l.13-.08a.27.27,0,0,1,0-.09.29.29,0,0,0-.13,0h0a.08.08,0,0,0,0-.08l.16-.09V8.55a.21.21,0,0,1-.14,0,.06.06,0,0,1,0,0l.14-.09v0h-.18a0,0,0,0,1,0,0v0a3.4,3.4,0,0,1-.46.06.62.62,0,0,1-.19,0H78.7c-.06,0-.15,0-.23,0a1.35,1.35,0,0,0-.35,0s0,.05-.05.05a.06.06,0,0,1,0,0h0l-.07,0-.2,0c-.13.05-.29.08-.44.13l-.12,0c-.13,0-.29.06-.43.11l-.14,0-.21,0h-.07a1.26,1.26,0,0,1-.28.05l-.3,0-.14,0a2.69,2.69,0,0,1-.4,0,1,1,0,0,0-.18,0l-.24,0h-.74c-.12,0-.25,0-.38,0a2,2,0,0,0-.35,0l-.09.07-.18.15c-.1.08-.19.18-.29.25a1.7,1.7,0,0,1-.44.18l-.15.05h0s.06-.15.09-.2A4.83,4.83,0,0,0,72.55,9h-.12a2.62,2.62,0,0,1-.28,0C72.09,9,72,9,72,9a1.23,1.23,0,0,1,0-.13l.16-.09s.1,0,.13-.05a.8.8,0,0,1-.19-.13c-.15-.08-.28-.18-.42-.27l-.19-.12-.1-.07h0l.18,0A1.07,1.07,0,0,1,72,8l.19,0L72,7.82c-.11-.15-.21-.31-.32-.47s-.13-.19-.2-.29a.91.91,0,0,1-.11-.16l.29-.08L72,6.75a.57.57,0,0,1,.22,0,1,1,0,0,1,.21.11l.35.21.85.47a2.32,2.32,0,0,0,.8.36l.25,0h.22l.45-.12.17,0,.21-.05a.61.61,0,0,1,.18,0v0h0l.07,0c.11,0,.23,0,.34-.09l.37-.1c.25-.09.51-.14.77-.21h0l0,0h0s0,0,.06,0a.37.37,0,0,1,.15,0L78.05,7s.15,0,.17,0-.28,0-.39,0h0a0,0,0,0,1,0,0l.11-.07-.2-.1,0,0h-.36a.06.06,0,0,0,0-.06l.11-.07-.23-.1-.06,0-.09,0h-.2a.2.2,0,0,1,0-.07s.07,0,.08-.06l-.2-.1A4.38,4.38,0,0,1,76.31,6L76,5.84l-.54-.3c-.14-.07-.3-.1-.44-.18a1.64,1.64,0,0,1-.22-.14.69.69,0,0,1-.13-.11h0s.15,0,.17,0a2.67,2.67,0,0,0,.26.09l.27.06a2.57,2.57,0,0,1,.4.06c.26.08.51.19.77.28s.64.2,1,.31.71.21,1.06.31c.17,0,.32.07.49.11l.43.1.28.07a.6.6,0,0,0,.19-.06l.29-.11h.08l.21,0c.12,0,.23,0,.37,0l.26-.07s.08,0,.13,0l.39-.11c.17-.06.36-.08.54-.14l.15,0c.14,0,.3-.07.44-.12l.1,0c.1,0,.21,0,.32-.09.28-.09.58-.15.87-.23h0l0,0h0a.09.09,0,0,1,0,0c.09,0,.21,0,.31-.06s.29,0,.44-.06a2.35,2.35,0,0,1,.53,0h.14a.62.62,0,0,1,.19.07s.06.07.1.08,0,0,.07,0,.23.06.24.17a.11.11,0,0,0,0,.05l-.07.1a.8.8,0,0,1-.13.13c-.07,0-.13.12-.21.17l-.13.08s0,0,0,0,0,0,0,0a.54.54,0,0,1-.18.11l-.33.16a2,2,0,0,1-.28.11c-.27.11-.59.17-.88.27-.09,0-.19,0-.27.08S83.4,7,83.3,7s-.26.06-.38.1l-.09,0c-.12,0-.26.07-.38.11l-.14,0-.15.07c-.16.09-.33.15-.49.23l-.12.06h0l-.09.16h0l.16,0,.3-.13.18,0c.08,0,.18,0,.24,0a.85.85,0,0,1,.39,0,.56.56,0,0,1,.2.34s0,.08,0,.12a.54.54,0,0,1,0,.28.53.53,0,0,1-.24.14,1.74,1.74,0,0,1-.73.2c-.1,0-.22,0-.3,0h-.08s0,0-.06-.05a.19.19,0,0,1,0-.08h-.1s0,0-.05,0l-.31,0v0a.61.61,0,0,0-.07.1l-.13.18c0,.06-.1.11-.14.18a1.12,1.12,0,0,1-.18.2l-.09.1a4.12,4.12,0,0,1-.31.28,1.26,1.26,0,0,1-.33.16l-.28.07-.14,0a.35.35,0,0,1-.17,0A.55.55,0,0,1,79,9.65a.63.63,0,0,1,.19,0,1.28,1.28,0,0,0,.27.05l0-.05s0-.07,0-.1a1,1,0,0,0,.12-.41" transform="translate(0 -2.65)"/><path class="cls-8" d="M11.35,35.83l.11.13,0,.09a1.14,1.14,0,0,1-.23.15l0,0-.18,0h0l-.37-.12a.08.08,0,0,1,0,0,1.56,1.56,0,0,1-.07-.17v-.2a2.09,2.09,0,0,0,.25,0Zm-.94.19L9.36,35.7l-.06-.14a4.06,4.06,0,0,0,.77.1h.31l0,.25ZM8,35.55A1,1,0,0,0,8,35.7l-1.11-.35A2.8,2.8,0,0,1,7,34.94a.58.58,0,0,1,.52-.27,2.43,2.43,0,0,0,.68.51l.23.1a.68.68,0,0,0-.36.27Zm.69.5c0,.05.07.13.06.16a1.46,1.46,0,0,1-.27.2,0,0,0,0,1,0,0v0l-.18,0v0l-.35-.11a1.09,1.09,0,0,1,0-.18A1.64,1.64,0,0,1,8,35.82Zm-.86,0a.55.55,0,0,1-.08.15l-1-.33v-.23l0-.23,1.12.36a.92.92,0,0,1,0,.28Zm-.19-4.2c-.15,0-.26,0-.26.06l0,.14L7.1,32a.24.24,0,0,0-.3.17h0c0,.09,0,.23.11.28l.15.06.13.18-.34-.09s-.14-.06-.19,0L5.59,32.3,4.2,32c0-.07,0-.08-.11-.1l-.37-.09v0l-.36-1.17,3.4.56a3.38,3.38,0,0,1,1.1.05v.11l.65.16,0,.53-.2,0a2.35,2.35,0,0,0-.65-.06Zm-4,.67.08-.19.33.17ZM9,31.93H8.94l0-.14v-.2l.06,0H9l.1.06Zm-.35-.39h0v.23l0,.14H8.56v-.43l.14.07Zm2.58,1.87a1.84,1.84,0,0,0-1.19-.55l-.21,0s-.1-.07-.11-.13-.07-.34-.26-.41L9,32.14v-.09l0,0V32l.06-.26.95.72a5.77,5.77,0,0,0,.72,0l-1.42-.74-.22-.07,0-.1.1,0,.26-.08c.06,0,.2,0,.21,0V31.3l5.65-.38a1.33,1.33,0,0,0-.6-.28l-4.33.47a2.37,2.37,0,0,1-.7.1v0a1.22,1.22,0,0,0-.26-.06l-.25,0c0-.06-.21-.11-.45-.12s-.46,0-.47.09H8.28L8,31.06l-.14.05-4.61-.74-.16-.51h0c0-.06,0-.08,0,0H2.84l.09.48-.62-.1a4,4,0,0,0-.68.1L3,30.54l.25,1.33a.09.09,0,0,0-.08,0h0l0-.07,0-.21-.49-.63-.19.15.66.86v0H2.91a0,0,0,0,0,0,0s0,0,0,0H3c0,.08.07.14.12.14l.06,0,0,.06v.19l0,.06v.15H3a.49.49,0,0,0,.25.17l0,.26s.08.13.13.15l.15,0,.1-.32.11.14.17-.14-.07-.1.61,0L7,34l.41.59a1.05,1.05,0,0,0-.24.06.55.55,0,0,0-.28.26c0,.13-.1.27-.14.41l-.1,0H6.56v.06l.2.06-.06.22v0l-.06.12H6.52v.06s-.06,0,0,0,0,0,.06.06l1.78.59a.31.31,0,0,0,.32,0L9,36.3h.07a.43.43,0,0,1,0-.07.09.09,0,0,0,0,0l.05,0v0l-1.09-.35.06-.14a.68.68,0,0,1,.47-.24c.12,0,.25.09.38.12l.23.06,0,.12H9.15s-.08.06,0,.08L11,36.3a.41.41,0,0,0,.36,0,3.07,3.07,0,0,0,.36-.2h0l.1-.12,0,0v0l-.77-.25.18,0c.35,0,.66-.14.73-.43s-.15-.64-.27-.88Z" transform="translate(0 -2.65)"/><path class="cls-8" d="M58.06,14.79h0Zm-4.51,4.32.13.12L55,18.52l-.11-.1,2.6-1.37.27-.52.41-.21.16.29-.06.05a.43.43,0,1,0,.46.7l.16.32c.24.14.77-.18,1-.52l-.26-.5c.52-.14.62-.52.59-.66s-.38-.45-.95,0l-.09-.17.35-.19.56.08,2.6-1.37v.14l1.27-.62V13.7l1.72-.88-.6-.56L59.74,15l-.33.51-.33.18-.21-.4c.2-.13.3-.43-.19-.36l.11.22-.21-.41.1,0c.29-.15.47-.4.38-.56s-.38-.17-.67,0a.65.65,0,0,0-.41.5c-.12-.1-.4,0-.63.19s-.34.52-.21.65.31.07.52-.07l.05.09,0,0c-.11.11-.14.25-.07.33a.23.23,0,0,0,.29,0l.2.38-.43.22-.52-.07-5.4,2.84.08.81Z" transform="translate(0 -2.65)"/><path class="cls-4" d="M34,15.59v-.11a1.67,1.67,0,0,0-1.66-1.66H25a1.67,1.67,0,0,0-1.66,1.66v.11A1.67,1.67,0,0,0,25,17.25h6.55a5.73,5.73,0,0,1,4.24,1.87c.08.08.13.16.21.24a5.75,5.75,0,0,1-4.45,9.39H25.84A5.76,5.76,0,0,1,20.09,23h3.25a2.5,2.5,0,0,0,2.5,2.5h5.69a2.5,2.5,0,1,0,0-5H25a4.87,4.87,0,0,1-3.41-1.38,4.34,4.34,0,0,1-.62-.78,4.77,4.77,0,0,1-.86-2.78v-.1A4.91,4.91,0,0,1,25,10.54h7.39a4.93,4.93,0,0,1,4.91,4.92v.1Z" transform="translate(0 -2.65)"/><path class="cls-8" d="M19.77,31H38.32S37,32.84,37,32.84H21.06" transform="translate(0 -2.65)"/><path class="cls-8" d="M68.68,31H87.24l-1.33,1.83H70" transform="translate(0 -2.65)"/></g></g></g></svg>